<mxfile host="65bd71144e" pages="2">
    <diagram name="Page-1" id="5eX4Q030cal43u4tE9cf">
        <mxGraphModel dx="772" dy="374" grid="1" gridSize="10" guides="1" tooltips="1" connect="1" arrows="1" fold="1" page="1" pageScale="1" pageWidth="827" pageHeight="1169" math="0" shadow="0">
            <root>
                <mxCell id="0"/>
                <mxCell id="1" parent="0"/>
                <mxCell id="2" style="edgeStyle=none;html=1;exitX=0.5;exitY=1;exitDx=0;exitDy=0;entryX=0.5;entryY=0;entryDx=0;entryDy=0;" edge="1" parent="1" source="17" target="18">
                    <mxGeometry relative="1" as="geometry">
                        <mxPoint x="354" y="70" as="sourcePoint"/>
                        <mxPoint x="354" y="110" as="targetPoint"/>
                    </mxGeometry>
                </mxCell>
                <mxCell id="5" style="edgeStyle=none;html=1;exitX=0.5;exitY=1;exitDx=0;exitDy=0;entryX=0.5;entryY=0;entryDx=0;entryDy=0;" edge="1" parent="1" target="8">
                    <mxGeometry relative="1" as="geometry">
                        <mxPoint x="354" y="170" as="sourcePoint"/>
                    </mxGeometry>
                </mxCell>
                <mxCell id="7" value="" style="edgeStyle=none;html=1;entryX=0.5;entryY=0;entryDx=0;entryDy=0;" edge="1" parent="1" source="8" target="19">
                    <mxGeometry relative="1" as="geometry">
                        <mxPoint x="354" y="320" as="targetPoint"/>
                    </mxGeometry>
                </mxCell>
                <mxCell id="8" value="LIRE longueur" style="shape=parallelogram;perimeter=parallelogramPerimeter;whiteSpace=wrap;html=1;fixedSize=1;" vertex="1" parent="1">
                    <mxGeometry x="294" y="210" width="120" height="60" as="geometry"/>
                </mxCell>
                <mxCell id="9" value="" style="edgeStyle=none;html=1;" edge="1" parent="1" target="12">
                    <mxGeometry relative="1" as="geometry">
                        <mxPoint x="354" y="380" as="sourcePoint"/>
                    </mxGeometry>
                </mxCell>
                <mxCell id="11" value="" style="edgeStyle=none;html=1;" edge="1" parent="1" source="12" target="14">
                    <mxGeometry relative="1" as="geometry"/>
                </mxCell>
                <mxCell id="12" value="LIRE largeur" style="shape=parallelogram;perimeter=parallelogramPerimeter;whiteSpace=wrap;html=1;fixedSize=1;" vertex="1" parent="1">
                    <mxGeometry x="294" y="430" width="120" height="60" as="geometry"/>
                </mxCell>
                <mxCell id="13" value="" style="edgeStyle=none;html=1;entryX=0.5;entryY=0;entryDx=0;entryDy=0;" edge="1" parent="1" source="14" target="20">
                    <mxGeometry relative="1" as="geometry">
                        <mxPoint x="354" y="670" as="targetPoint"/>
                    </mxGeometry>
                </mxCell>
                <mxCell id="14" value="CALCULER aire = longueur x largeur" style="whiteSpace=wrap;html=1;" vertex="1" parent="1">
                    <mxGeometry x="294" y="540" width="120" height="60" as="geometry"/>
                </mxCell>
                <mxCell id="15" style="edgeStyle=none;html=1;exitX=0.5;exitY=1;exitDx=0;exitDy=0;entryX=0.5;entryY=0;entryDx=0;entryDy=0;" edge="1" parent="1" source="20" target="21">
                    <mxGeometry relative="1" as="geometry">
                        <mxPoint x="354" y="730" as="sourcePoint"/>
                        <mxPoint x="354" y="770" as="targetPoint"/>
                    </mxGeometry>
                </mxCell>
                <mxCell id="17" value="DÉBUT" style="ellipse;whiteSpace=wrap;html=1;" vertex="1" parent="1">
                    <mxGeometry x="294" width="120" height="60" as="geometry"/>
                </mxCell>
                <mxCell id="18" value="AFFICHER &quot;Veuillez saisir la longueur du rectangle&quot;" style="shape=parallelogram;perimeter=parallelogramPerimeter;whiteSpace=wrap;html=1;fixedSize=1;" vertex="1" parent="1">
                    <mxGeometry x="274" y="110" width="160" height="60" as="geometry"/>
                </mxCell>
                <mxCell id="19" value="AFFICHER &quot;Veuillez saisir la largeur du rectangle&quot;" style="shape=parallelogram;perimeter=parallelogramPerimeter;whiteSpace=wrap;html=1;fixedSize=1;" vertex="1" parent="1">
                    <mxGeometry x="274" y="320" width="160" height="60" as="geometry"/>
                </mxCell>
                <mxCell id="20" value="AFFICHER &quot;L'aire du rectangle est: &quot; aire" style="shape=parallelogram;perimeter=parallelogramPerimeter;whiteSpace=wrap;html=1;fixedSize=1;" vertex="1" parent="1">
                    <mxGeometry x="279" y="650" width="150" height="60" as="geometry"/>
                </mxCell>
                <mxCell id="21" value="FIN" style="ellipse;whiteSpace=wrap;html=1;" vertex="1" parent="1">
                    <mxGeometry x="294" y="770" width="120" height="60" as="geometry"/>
                </mxCell>
            </root>
        </mxGraphModel>
    </diagram>
    <diagram id="BtFexejdZ64q9sORLQ9k" name="Page-2">
        <mxGraphModel dx="1034" dy="458" grid="1" gridSize="10" guides="1" tooltips="1" connect="1" arrows="1" fold="1" page="1" pageScale="1" pageWidth="827" pageHeight="1169" math="0" shadow="0">
            <root>
                <mxCell id="0"/>
                <mxCell id="1" parent="0"/>
                <mxCell id="m4159YTi05dSgR7cBVEY-1" style="edgeStyle=none;html=1;exitX=0.5;exitY=1;exitDx=0;exitDy=0;entryX=0.5;entryY=0;entryDx=0;entryDy=0;" edge="1" parent="1" source="m4159YTi05dSgR7cBVEY-2" target="m4159YTi05dSgR7cBVEY-5">
                    <mxGeometry relative="1" as="geometry"/>
                </mxCell>
                <mxCell id="m4159YTi05dSgR7cBVEY-2" value="DÉBUT" style="rounded=1;whiteSpace=wrap;html=1;" vertex="1" parent="1">
                    <mxGeometry x="70" y="130" width="120" height="60" as="geometry"/>
                </mxCell>
                <mxCell id="m4159YTi05dSgR7cBVEY-3" value="FIN" style="rounded=1;whiteSpace=wrap;html=1;" vertex="1" parent="1">
                    <mxGeometry x="70" y="890" width="120" height="60" as="geometry"/>
                </mxCell>
                <mxCell id="m4159YTi05dSgR7cBVEY-4" style="edgeStyle=none;html=1;exitX=0.5;exitY=1;exitDx=0;exitDy=0;entryX=0.5;entryY=0;entryDx=0;entryDy=0;" edge="1" parent="1" source="m4159YTi05dSgR7cBVEY-5" target="m4159YTi05dSgR7cBVEY-7">
                    <mxGeometry relative="1" as="geometry"/>
                </mxCell>
                <mxCell id="m4159YTi05dSgR7cBVEY-5" value="AFFICHER &quot;Veuillez saisir la longueur du rectangle&quot;" style="rounded=0;whiteSpace=wrap;html=1;" vertex="1" parent="1">
                    <mxGeometry x="70" y="230" width="120" height="60" as="geometry"/>
                </mxCell>
                <mxCell id="m4159YTi05dSgR7cBVEY-6" value="" style="edgeStyle=none;html=1;" edge="1" parent="1" source="m4159YTi05dSgR7cBVEY-7" target="m4159YTi05dSgR7cBVEY-9">
                    <mxGeometry relative="1" as="geometry"/>
                </mxCell>
                <mxCell id="m4159YTi05dSgR7cBVEY-7" value="LIRE longueur" style="shape=parallelogram;perimeter=parallelogramPerimeter;whiteSpace=wrap;html=1;fixedSize=1;" vertex="1" parent="1">
                    <mxGeometry x="70" y="330" width="120" height="60" as="geometry"/>
                </mxCell>
                <mxCell id="m4159YTi05dSgR7cBVEY-8" value="" style="edgeStyle=none;html=1;" edge="1" parent="1" source="m4159YTi05dSgR7cBVEY-9" target="m4159YTi05dSgR7cBVEY-11">
                    <mxGeometry relative="1" as="geometry"/>
                </mxCell>
                <mxCell id="m4159YTi05dSgR7cBVEY-9" value="AFFICHER &quot;Veuillez saisir la largeur du rectangle&quot;" style="whiteSpace=wrap;html=1;" vertex="1" parent="1">
                    <mxGeometry x="70" y="440" width="120" height="60" as="geometry"/>
                </mxCell>
                <mxCell id="m4159YTi05dSgR7cBVEY-10" value="" style="edgeStyle=none;html=1;" edge="1" parent="1" source="m4159YTi05dSgR7cBVEY-11" target="m4159YTi05dSgR7cBVEY-13">
                    <mxGeometry relative="1" as="geometry"/>
                </mxCell>
                <mxCell id="m4159YTi05dSgR7cBVEY-11" value="LIRE largeur" style="shape=parallelogram;perimeter=parallelogramPerimeter;whiteSpace=wrap;html=1;fixedSize=1;" vertex="1" parent="1">
                    <mxGeometry x="70" y="550" width="120" height="60" as="geometry"/>
                </mxCell>
                <mxCell id="m4159YTi05dSgR7cBVEY-12" value="" style="edgeStyle=none;html=1;" edge="1" parent="1" source="m4159YTi05dSgR7cBVEY-13" target="m4159YTi05dSgR7cBVEY-15">
                    <mxGeometry relative="1" as="geometry"/>
                </mxCell>
                <mxCell id="m4159YTi05dSgR7cBVEY-13" value="CALCULER aire = longueur x largeur" style="whiteSpace=wrap;html=1;" vertex="1" parent="1">
                    <mxGeometry x="70" y="670" width="120" height="60" as="geometry"/>
                </mxCell>
                <mxCell id="m4159YTi05dSgR7cBVEY-14" style="edgeStyle=none;html=1;exitX=0.5;exitY=1;exitDx=0;exitDy=0;entryX=0.5;entryY=0;entryDx=0;entryDy=0;" edge="1" parent="1" source="m4159YTi05dSgR7cBVEY-15" target="m4159YTi05dSgR7cBVEY-3">
                    <mxGeometry relative="1" as="geometry"/>
                </mxCell>
                <mxCell id="m4159YTi05dSgR7cBVEY-15" value="AFFICHER &quot;L'aire du rectangle est: &quot; aire" style="whiteSpace=wrap;html=1;" vertex="1" parent="1">
                    <mxGeometry x="70" y="790" width="120" height="60" as="geometry"/>
                </mxCell>
            </root>
        </mxGraphModel>
    </diagram>
</mxfile>